<mxfile host="app.diagrams.net" agent="Mozilla/5.0 (Windows NT 10.0; Win64; x64) AppleWebKit/537.36 (KHTML, like Gecko) Chrome/135.0.0.0 Safari/537.36 Edg/135.0.0.0" version="26.2.6">
  <diagram id="C5RBs43oDa-KdzZeNtuy" name="Page-1">
    <mxGraphModel dx="907" dy="620" grid="1" gridSize="10" guides="1" tooltips="1" connect="1" arrows="1" fold="1" page="1" pageScale="1" pageWidth="827" pageHeight="1169" math="0" shadow="0">
      <root>
        <mxCell id="WIyWlLk6GJQsqaUBKTNV-0" />
        <mxCell id="WIyWlLk6GJQsqaUBKTNV-1" parent="WIyWlLk6GJQsqaUBKTNV-0" />
        <mxCell id="KEnEQgCuLRH3MKphGw6k-3" value="&lt;font style=&quot;color: rgb(204, 204, 204);&quot;&gt;Computer System&lt;/font&gt;" style="rounded=0;whiteSpace=wrap;html=1;align=center;dashed=1;dashPattern=1 4;fillColor=none;strokeColor=#E6E6E6;" vertex="1" parent="WIyWlLk6GJQsqaUBKTNV-1">
          <mxGeometry x="490" y="40" width="120" height="40" as="geometry" />
        </mxCell>
        <mxCell id="KEnEQgCuLRH3MKphGw6k-4" value="硬件&lt;font style=&quot;color: rgb(204, 204, 204);&quot;&gt;system&lt;/font&gt;" style="rounded=0;whiteSpace=wrap;html=1;align=center;fillColor=none;strokeColor=none;" vertex="1" parent="WIyWlLk6GJQsqaUBKTNV-1">
          <mxGeometry x="240" y="120" width="120" height="40" as="geometry" />
        </mxCell>
        <mxCell id="KEnEQgCuLRH3MKphGw6k-6" style="elbow=vertical;rounded=1;html=1;entryX=0.5;entryY=0;entryDx=0;entryDy=0;exitX=0.25;exitY=1;exitDx=0;exitDy=0;endArrow=none;endFill=1;strokeColor=#CCCCCC;dashed=1;dashPattern=12 12;curved=0;strokeWidth=0.5;startFill=0;" edge="1" parent="WIyWlLk6GJQsqaUBKTNV-1" source="KEnEQgCuLRH3MKphGw6k-3" target="KEnEQgCuLRH3MKphGw6k-4">
          <mxGeometry relative="1" as="geometry" />
        </mxCell>
        <mxCell id="KEnEQgCuLRH3MKphGw6k-7" style="elbow=vertical;rounded=1;html=1;entryX=0.5;entryY=0;entryDx=0;entryDy=0;exitX=0.75;exitY=1;exitDx=0;exitDy=0;endArrow=none;endFill=1;strokeColor=#E6E6E6;dashed=1;dashPattern=12 12;curved=0;strokeWidth=0.5;startFill=0;" edge="1" parent="WIyWlLk6GJQsqaUBKTNV-1" source="KEnEQgCuLRH3MKphGw6k-3" target="KEnEQgCuLRH3MKphGw6k-5">
          <mxGeometry relative="1" as="geometry" />
        </mxCell>
        <mxCell id="KEnEQgCuLRH3MKphGw6k-10" style="elbow=vertical;rounded=0;html=1;entryX=0.5;entryY=0;entryDx=0;entryDy=0;exitX=0.25;exitY=1;exitDx=0;exitDy=0;endArrow=classic;endFill=1;strokeColor=#E6E6E6;dashed=1;dashPattern=8 8;" edge="1" parent="WIyWlLk6GJQsqaUBKTNV-1" source="KEnEQgCuLRH3MKphGw6k-4" target="KEnEQgCuLRH3MKphGw6k-8">
          <mxGeometry relative="1" as="geometry" />
        </mxCell>
        <mxCell id="KEnEQgCuLRH3MKphGw6k-11" style="elbow=vertical;rounded=0;html=1;entryX=0.5;entryY=0;entryDx=0;entryDy=0;exitX=0.75;exitY=1;exitDx=0;exitDy=0;endArrow=classic;endFill=1;strokeColor=#E6E6E6;dashed=1;dashPattern=8 8;" edge="1" parent="WIyWlLk6GJQsqaUBKTNV-1" source="KEnEQgCuLRH3MKphGw6k-4" target="KEnEQgCuLRH3MKphGw6k-9">
          <mxGeometry relative="1" as="geometry" />
        </mxCell>
        <mxCell id="KEnEQgCuLRH3MKphGw6k-61" value="" style="group;collapsible=1;" vertex="1" connectable="0" parent="WIyWlLk6GJQsqaUBKTNV-1" collapsed="1">
          <mxGeometry x="370" y="199" width="50" height="40" as="geometry">
            <mxRectangle x="370" y="199" width="220" height="150" as="alternateBounds" />
          </mxGeometry>
        </mxCell>
        <mxCell id="KEnEQgCuLRH3MKphGw6k-9" value="&lt;b&gt;外设&lt;/b&gt;" style="rounded=0;whiteSpace=wrap;html=1;align=center;fillColor=none;strokeColor=none;fontColor=#CCCCCC;" vertex="1" parent="KEnEQgCuLRH3MKphGw6k-61">
          <mxGeometry x="60" width="100" height="40" as="geometry" />
        </mxCell>
        <mxCell id="KEnEQgCuLRH3MKphGw6k-16" value="input device" style="rounded=0;whiteSpace=wrap;html=1;align=center;fillColor=none;strokeColor=none;fontColor=#CCCCCC;" vertex="1" parent="KEnEQgCuLRH3MKphGw6k-61">
          <mxGeometry y="80" width="100" height="40" as="geometry" />
        </mxCell>
        <mxCell id="KEnEQgCuLRH3MKphGw6k-18" style="elbow=vertical;rounded=0;html=1;entryX=0.5;entryY=0;entryDx=0;entryDy=0;exitX=0.25;exitY=1;exitDx=0;exitDy=0;endArrow=classic;endFill=1;strokeColor=#E6E6E6;dashed=1;dashPattern=8 8;" edge="1" parent="KEnEQgCuLRH3MKphGw6k-61" source="KEnEQgCuLRH3MKphGw6k-9" target="KEnEQgCuLRH3MKphGw6k-16">
          <mxGeometry relative="1" as="geometry" />
        </mxCell>
        <mxCell id="KEnEQgCuLRH3MKphGw6k-62" value="" style="group" vertex="1" connectable="0" parent="KEnEQgCuLRH3MKphGw6k-61">
          <mxGeometry x="120" y="80" width="100" height="40" as="geometry" />
        </mxCell>
        <mxCell id="KEnEQgCuLRH3MKphGw6k-17" value="output ~" style="rounded=0;whiteSpace=wrap;html=1;align=center;fillColor=none;strokeColor=none;fontColor=#CCCCCC;" vertex="1" parent="KEnEQgCuLRH3MKphGw6k-62">
          <mxGeometry width="100" height="40" as="geometry" />
        </mxCell>
        <mxCell id="KEnEQgCuLRH3MKphGw6k-19" style="elbow=vertical;rounded=0;html=1;entryX=0.5;entryY=0;entryDx=0;entryDy=0;exitX=0.75;exitY=1;exitDx=0;exitDy=0;endArrow=classic;endFill=1;strokeColor=#E6E6E6;dashed=1;dashPattern=8 8;" edge="1" parent="KEnEQgCuLRH3MKphGw6k-62" source="KEnEQgCuLRH3MKphGw6k-9" target="KEnEQgCuLRH3MKphGw6k-17">
          <mxGeometry relative="1" as="geometry" />
        </mxCell>
        <mxCell id="KEnEQgCuLRH3MKphGw6k-68" value="" style="group;collapsible=1;" vertex="1" connectable="0" parent="WIyWlLk6GJQsqaUBKTNV-1" collapsed="1">
          <mxGeometry x="690" y="120" width="50" height="40" as="geometry">
            <mxRectangle x="690" y="120" width="320" height="120" as="alternateBounds" />
          </mxGeometry>
        </mxCell>
        <mxCell id="KEnEQgCuLRH3MKphGw6k-5" value="&lt;font style=&quot;color: rgb(204, 204, 204);&quot;&gt;software system&lt;/font&gt;" style="rounded=0;whiteSpace=wrap;html=1;align=center;dashed=1;dashPattern=1 4;fillColor=none;strokeColor=#E6E6E6;" vertex="1" parent="KEnEQgCuLRH3MKphGw6k-68">
          <mxGeometry x="100" width="120" height="40" as="geometry" />
        </mxCell>
        <mxCell id="KEnEQgCuLRH3MKphGw6k-38" style="elbow=vertical;rounded=0;html=1;entryX=0.5;entryY=0;entryDx=0;entryDy=0;exitX=0.25;exitY=1;exitDx=0;exitDy=0;endArrow=classic;endFill=1;strokeColor=#E6E6E6;dashed=1;dashPattern=8 8;" edge="1" parent="KEnEQgCuLRH3MKphGw6k-68" source="KEnEQgCuLRH3MKphGw6k-5" target="KEnEQgCuLRH3MKphGw6k-36">
          <mxGeometry relative="1" as="geometry" />
        </mxCell>
        <mxCell id="KEnEQgCuLRH3MKphGw6k-39" style="elbow=vertical;rounded=0;html=1;entryX=0.5;entryY=0;entryDx=0;entryDy=0;exitX=0.75;exitY=1;exitDx=0;exitDy=0;endArrow=classic;endFill=1;strokeColor=#E6E6E6;dashed=1;dashPattern=8 8;" edge="1" parent="KEnEQgCuLRH3MKphGw6k-68" source="KEnEQgCuLRH3MKphGw6k-5" target="KEnEQgCuLRH3MKphGw6k-37">
          <mxGeometry relative="1" as="geometry" />
        </mxCell>
        <mxCell id="KEnEQgCuLRH3MKphGw6k-36" value="&lt;b&gt;系统&lt;/b&gt;software" style="rounded=0;whiteSpace=wrap;html=1;align=center;fillColor=none;strokeColor=none;fontColor=#CCCCCC;" vertex="1" parent="KEnEQgCuLRH3MKphGw6k-68">
          <mxGeometry y="80" width="120" height="40" as="geometry" />
        </mxCell>
        <mxCell id="KEnEQgCuLRH3MKphGw6k-37" value="应用~" style="rounded=0;whiteSpace=wrap;html=1;align=center;fillColor=none;strokeColor=none;fontColor=#CCCCCC;" vertex="1" parent="KEnEQgCuLRH3MKphGw6k-68">
          <mxGeometry x="200" y="80" width="120" height="40" as="geometry" />
        </mxCell>
        <mxCell id="KEnEQgCuLRH3MKphGw6k-73" value="" style="group;collapsible=1;" vertex="1" connectable="0" parent="WIyWlLk6GJQsqaUBKTNV-1" collapsed="1">
          <mxGeometry x="20" y="199" width="50" height="40" as="geometry">
            <mxRectangle x="20" y="199" width="380" height="385" as="alternateBounds" />
          </mxGeometry>
        </mxCell>
        <mxCell id="KEnEQgCuLRH3MKphGw6k-8" value="&lt;font style=&quot;color: rgb(204, 204, 204);&quot;&gt;&lt;b&gt;Host&lt;/b&gt;&lt;/font&gt;" style="rounded=0;whiteSpace=wrap;html=1;align=center;fillColor=none;strokeColor=none;" vertex="1" parent="KEnEQgCuLRH3MKphGw6k-73">
          <mxGeometry x="70" width="100" height="40" as="geometry" />
        </mxCell>
        <mxCell id="KEnEQgCuLRH3MKphGw6k-12" value="CPU" style="rounded=0;whiteSpace=wrap;html=1;align=center;fillColor=none;strokeColor=none;" vertex="1" parent="KEnEQgCuLRH3MKphGw6k-73">
          <mxGeometry y="80" width="100" height="40" as="geometry" />
        </mxCell>
        <mxCell id="KEnEQgCuLRH3MKphGw6k-13" value="&lt;font style=&quot;color: rgb(255, 204, 153);&quot;&gt;M&lt;/font&gt;" style="rounded=0;whiteSpace=wrap;html=1;align=center;fillColor=none;strokeColor=none;" vertex="1" parent="KEnEQgCuLRH3MKphGw6k-73">
          <mxGeometry x="190" y="70" width="100" height="40" as="geometry" />
        </mxCell>
        <mxCell id="KEnEQgCuLRH3MKphGw6k-14" style="elbow=vertical;rounded=0;html=1;entryX=0.5;entryY=0;entryDx=0;entryDy=0;exitX=0.25;exitY=1;exitDx=0;exitDy=0;endArrow=classic;endFill=1;strokeColor=#E6E6E6;dashed=1;dashPattern=8 8;" edge="1" parent="KEnEQgCuLRH3MKphGw6k-73" source="KEnEQgCuLRH3MKphGw6k-8" target="KEnEQgCuLRH3MKphGw6k-12">
          <mxGeometry relative="1" as="geometry" />
        </mxCell>
        <mxCell id="KEnEQgCuLRH3MKphGw6k-15" style="elbow=vertical;rounded=0;html=1;entryX=0.5;entryY=0;entryDx=0;entryDy=0;exitX=0.75;exitY=1;exitDx=0;exitDy=0;endArrow=classic;endFill=1;strokeColor=#E6E6E6;dashed=1;dashPattern=8 8;" edge="1" parent="KEnEQgCuLRH3MKphGw6k-73" source="KEnEQgCuLRH3MKphGw6k-8" target="KEnEQgCuLRH3MKphGw6k-13">
          <mxGeometry relative="1" as="geometry" />
        </mxCell>
        <mxCell id="KEnEQgCuLRH3MKphGw6k-20" value="&lt;div style=&quot;&quot;&gt;运算器&lt;br&gt;控制器&lt;br&gt;片内&lt;font style=&quot;color: rgb(153, 153, 255);&quot;&gt;Cache&lt;/font&gt;&lt;/div&gt;" style="rounded=0;whiteSpace=wrap;html=1;align=center;verticalAlign=top;fillColor=none;strokeColor=none;" vertex="1" parent="KEnEQgCuLRH3MKphGw6k-73">
          <mxGeometry y="160" width="100" height="60" as="geometry" />
        </mxCell>
        <mxCell id="KEnEQgCuLRH3MKphGw6k-21" style="edgeStyle=elbowEdgeStyle;elbow=vertical;rounded=0;html=1;entryX=0.5;entryY=0;entryDx=0;entryDy=0;exitX=0.5;exitY=1;exitDx=0;exitDy=0;endArrow=classic;endFill=0;strokeColor=#CCCCCC;dashed=1;dashPattern=12 12;" edge="1" parent="KEnEQgCuLRH3MKphGw6k-73" source="KEnEQgCuLRH3MKphGw6k-12" target="KEnEQgCuLRH3MKphGw6k-20">
          <mxGeometry relative="1" as="geometry" />
        </mxCell>
        <mxCell id="KEnEQgCuLRH3MKphGw6k-22" value="&lt;font style=&quot;color: rgb(255, 204, 153);&quot;&gt;主&lt;/font&gt;&lt;font style=&quot;color: rgb(204, 204, 204);&quot;&gt;~&lt;/font&gt;" style="rounded=0;whiteSpace=wrap;html=1;align=center;fillColor=none;strokeColor=none;" vertex="1" parent="KEnEQgCuLRH3MKphGw6k-73">
          <mxGeometry x="100" y="230" width="80" height="40" as="geometry" />
        </mxCell>
        <mxCell id="KEnEQgCuLRH3MKphGw6k-23" value="&lt;font style=&quot;color: rgb(230, 230, 230);&quot;&gt;外&lt;/font&gt;&lt;font style=&quot;color: rgb(204, 204, 204);&quot;&gt;~&lt;/font&gt;" style="rounded=0;whiteSpace=wrap;html=1;align=center;fillColor=none;strokeColor=none;" vertex="1" parent="KEnEQgCuLRH3MKphGw6k-73">
          <mxGeometry x="200" y="230" width="80" height="40" as="geometry" />
        </mxCell>
        <mxCell id="KEnEQgCuLRH3MKphGw6k-24" value="片&lt;font style=&quot;color: rgb(204, 204, 204);&quot;&gt;外&lt;/font&gt;&lt;font style=&quot;color: rgb(153, 153, 255);&quot;&gt;Cache&lt;/font&gt;" style="rounded=0;whiteSpace=wrap;html=1;align=center;fillColor=none;strokeColor=none;" vertex="1" parent="KEnEQgCuLRH3MKphGw6k-73">
          <mxGeometry x="300" y="230" width="80" height="40" as="geometry" />
        </mxCell>
        <mxCell id="KEnEQgCuLRH3MKphGw6k-25" style="elbow=vertical;rounded=0;html=1;entryX=0.5;entryY=0;entryDx=0;entryDy=0;exitX=0.172;exitY=1.02;exitDx=0;exitDy=0;endArrow=classic;endFill=1;strokeColor=#E6E6E6;exitPerimeter=0;dashed=1;dashPattern=8 8;" edge="1" parent="KEnEQgCuLRH3MKphGw6k-73" source="KEnEQgCuLRH3MKphGw6k-13">
          <mxGeometry relative="1" as="geometry">
            <mxPoint x="190" y="110" as="sourcePoint" />
            <mxPoint x="150" y="230" as="targetPoint" />
          </mxGeometry>
        </mxCell>
        <mxCell id="KEnEQgCuLRH3MKphGw6k-26" style="elbow=vertical;rounded=0;html=1;entryX=0.5;entryY=0;entryDx=0;entryDy=0;exitX=0.5;exitY=1;exitDx=0;exitDy=0;endArrow=classic;endFill=1;strokeColor=#E6E6E6;dashed=1;dashPattern=8 8;" edge="1" parent="KEnEQgCuLRH3MKphGw6k-73" source="KEnEQgCuLRH3MKphGw6k-13" target="KEnEQgCuLRH3MKphGw6k-23">
          <mxGeometry relative="1" as="geometry" />
        </mxCell>
        <mxCell id="KEnEQgCuLRH3MKphGw6k-27" style="elbow=vertical;rounded=0;html=1;entryX=0.5;entryY=0;entryDx=0;entryDy=0;exitX=0.75;exitY=1;exitDx=0;exitDy=0;endArrow=classic;endFill=1;strokeColor=#E6E6E6;dashed=1;dashPattern=8 8;" edge="1" parent="KEnEQgCuLRH3MKphGw6k-73" source="KEnEQgCuLRH3MKphGw6k-13" target="KEnEQgCuLRH3MKphGw6k-24">
          <mxGeometry relative="1" as="geometry">
            <mxPoint x="250" y="170" as="sourcePoint" />
          </mxGeometry>
        </mxCell>
        <mxCell id="KEnEQgCuLRH3MKphGw6k-28" value="&lt;div style=&quot;&quot;&gt;ROM&lt;br&gt;RAM&lt;br&gt;内存&lt;/div&gt;" style="rounded=0;whiteSpace=wrap;html=1;align=center;verticalAlign=top;fillColor=none;strokeColor=none;fontColor=#CCCCCC;" vertex="1" parent="KEnEQgCuLRH3MKphGw6k-73">
          <mxGeometry x="100" y="310" width="80" height="60" as="geometry" />
        </mxCell>
        <mxCell id="KEnEQgCuLRH3MKphGw6k-29" style="edgeStyle=elbowEdgeStyle;elbow=vertical;rounded=0;html=1;entryX=0.5;entryY=0;entryDx=0;entryDy=0;exitX=0.5;exitY=1;exitDx=0;exitDy=0;endArrow=classic;endFill=0;startFill=0;strokeColor=#CCCCCC;dashed=1;dashPattern=12 12;" edge="1" parent="KEnEQgCuLRH3MKphGw6k-73" source="KEnEQgCuLRH3MKphGw6k-22" target="KEnEQgCuLRH3MKphGw6k-28">
          <mxGeometry relative="1" as="geometry" />
        </mxCell>
        <mxCell id="KEnEQgCuLRH3MKphGw6k-30" value="&lt;div style=&quot;&quot;&gt;硬盘&lt;br&gt;软盘&lt;br&gt;磁带机&lt;br&gt;CD&lt;/div&gt;" style="rounded=0;whiteSpace=wrap;html=1;align=center;verticalAlign=top;fillColor=none;strokeColor=none;fontColor=#CCCCCC;" vertex="1" parent="KEnEQgCuLRH3MKphGw6k-73">
          <mxGeometry x="200" y="310" width="80" height="75" as="geometry" />
        </mxCell>
        <mxCell id="KEnEQgCuLRH3MKphGw6k-31" style="edgeStyle=elbowEdgeStyle;elbow=vertical;rounded=0;html=1;entryX=0.5;entryY=0;entryDx=0;entryDy=0;exitX=0.5;exitY=1;exitDx=0;exitDy=0;endArrow=classicThin;endFill=0;startFill=0;strokeColor=#CCCCCC;dashed=1;dashPattern=12 12;" edge="1" parent="KEnEQgCuLRH3MKphGw6k-73" source="KEnEQgCuLRH3MKphGw6k-23" target="KEnEQgCuLRH3MKphGw6k-30">
          <mxGeometry relative="1" as="geometry" />
        </mxCell>
      </root>
    </mxGraphModel>
  </diagram>
</mxfile>
